<svg xmlns="http://www.w3.org/2000/svg" xmlns:xlink="http://www.w3.org/1999/xlink" width="35" height="35" viewBox="0 0 35 35">
  <defs>
    <clipPath id="clip-path">
      <rect id="矩形_27129" data-name="矩形 27129" width="35" height="35" transform="translate(0.489 -0.497)" fill="#fff" stroke="#707070" stroke-width="1"/>
    </clipPath>
  </defs>
  <g id="蒙版组_19630" data-name="蒙版组 19630" transform="translate(-0.489 0.497)" clip-path="url(#clip-path)">
    <g id="组_25614" data-name="组 25614" transform="translate(2.5 2.66)">
      <path id="Premium" d="M106.479,128a.987.987,0,0,1,.8.4l.071.115,4.3,7.935.05.122.016.053.026.134.008.124a1.025,1.025,0,0,1-.036.263l-.062.165-.05.091a1,1,0,0,1-.1.134l.079-.1-.033.046L99.367,151.311a.953.953,0,0,1-.391.305l-.129.043-.1.022-.166.013-.132-.008-.155-.034a.944.944,0,0,1-.228-.1l-.013-.009a.885.885,0,0,1-.171-.137L85.653,137.525l-.034-.042-.053-.078a.981.981,0,0,1-.14-.4l-.008-.122,0-.087.017-.117a.952.952,0,0,1,.032-.113l.029-.078.037-.075,4.278-7.9a.987.987,0,0,1,.733-.508l.133-.011Zm-3.949,9.873h-7.9l3.952,10.119Zm-10.015,0H88.589l7.044,8-3.12-8Zm16.058,0h-3.923l-3.117,7.991,7.039-7.991Zm-13.975-7.9H91.27L88.061,135.9H92.7l1.9-5.924Zm5.9,0H96.67l-1.9,5.924h7.615l-1.9-5.924Zm5.4,0h-3.324l1.9,5.924H109.1l-3.207-5.924Z" transform="translate(-83.496 -128)" fill="#353535"/>
      <g id="location-dealer" transform="translate(0 18.832)">
        <path id="路径_76624" data-name="路径 76624" d="M92.935,683.145q-2.142-3.788-4.315-7.557a1.072,1.072,0,0,0-1.825-.046,1.048,1.048,0,0,0-.011,1.174q1.586,2.77,3.165,5.544a.674.674,0,0,1,.151.333H65.84c.391-.687.756-1.329,1.121-1.97.744-1.3,1.493-2.6,2.232-3.91a1.078,1.078,0,0,0-.653-1.63,1.1,1.1,0,0,0-1.252.624c-1.384,2.421-2.738,4.86-4.163,7.257a1.153,1.153,0,0,0,1.053,1.811c4.413-.039,8.826-.017,13.24-.017q7.243,0,14.486,0A1.071,1.071,0,0,0,92.935,683.145Z" transform="translate(-62.921 -675.048)" fill="#fd4b17"/>
      </g>
    </g>
  </g>
</svg>
