<svg xmlns="http://www.w3.org/2000/svg" xmlns:xlink="http://www.w3.org/1999/xlink" width="35" height="35" viewBox="0 0 35 35">
  <defs>
    <clipPath id="clip-path">
      <rect id="矩形_27133" data-name="矩形 27133" width="35" height="35" transform="translate(-0.07 -0.463)" fill="#fff" stroke="#707070" stroke-width="1"/>
    </clipPath>
  </defs>
  <g id="蒙版组_19634" data-name="蒙版组 19634" transform="translate(0.07 0.463)" clip-path="url(#clip-path)">
    <g id="组_25615" data-name="组 25615" transform="translate(2.522 2.539)">
      <path id="路径_76634" data-name="路径 76634" d="M153.941,96a9.668,9.668,0,0,0-9.668,9.668l.019.6a9.609,9.609,0,0,0,.273,1.764l.1.36-9.709,9.711-.276.3a4.64,4.64,0,0,0,.276,6.24l.314.283a4.626,4.626,0,0,0,6.231-.283l9.706-9.711.363.1a9.668,9.668,0,0,0,11.384-12.868l-.669-1.728-3.159,3.157A2.209,2.209,0,1,1,156,100.481l3.159-3.159-1.728-.672a9.646,9.646,0,0,0-3.492-.65Zm0,2.417.541.019.131.014-.317.319a4.626,4.626,0,0,0,0,6.545l.309.283a4.626,4.626,0,0,0,6.233-.283l.317-.321.017.133a7.251,7.251,0,0,1-9.849,7.306l-.735-.285-10.8,10.792a2.209,2.209,0,0,1-3.277-2.956l.193-.213,10.755-10.75-.285-.732a7.251,7.251,0,0,1,6.763-9.871Z" transform="translate(-133.609 -96)" fill="#353535"/>
      <line id="直线_2596" data-name="直线 2596" y1="4.585" x2="4.585" transform="translate(4.767 20.765)" fill="none" stroke="#fd4b17" stroke-linecap="round" stroke-width="3"/>
    </g>
  </g>
</svg>
