<svg xmlns="http://www.w3.org/2000/svg" xmlns:xlink="http://www.w3.org/1999/xlink" width="35" height="35" viewBox="0 0 35 35">
  <defs>
    <clipPath id="clip-path">
      <rect id="矩形_27132" data-name="矩形 27132" width="35" height="35" transform="translate(0.431 0)" fill="#fff" stroke="#707070" stroke-width="1"/>
    </clipPath>
  </defs>
  <g id="蒙版组_19633" data-name="蒙版组 19633" transform="translate(-0.431)" clip-path="url(#clip-path)">
    <g id="icon_ride" transform="translate(-0.195 2.191)">
      <path id="路径_76631" data-name="路径 76631" d="M6.915,541.682a7.223,7.223,0,0,0,0,14.432,7.223,7.223,0,0,0,0-14.432Zm0,12.535a5.323,5.323,0,0,1,0-10.637,5.323,5.323,0,0,1,0,10.637Z" transform="translate(0 -525.473)" fill="#fd4b17"/>
      <path id="路径_76632" data-name="路径 76632" d="M327.306,13.653a1.684,1.684,0,0,0,1.225.534h5.184a1.819,1.819,0,0,0,0-3.634h-4.471l-3.193-3.348a1.723,1.723,0,0,0-1.232-.532,1.7,1.7,0,0,0-1.231.532l-4.445,4.639a1.877,1.877,0,0,0,.008,2.578l4.363,4.514v6.207a1.743,1.743,0,1,0,3.484,0l0-6.964a1.861,1.861,0,0,0-.514-1.293l-3.639-3.758,1.975-2.064Zm2.186-6.89a3.308,3.308,0,0,0,3.23-3.383,3.232,3.232,0,1,0-6.457,0A3.311,3.311,0,0,0,329.491,6.763Z" transform="translate(-307.846)" fill="#353535"/>
      <path id="路径_76633" data-name="路径 76633" d="M644.157,541.682a7.223,7.223,0,1,0,6.917,7.217,7.059,7.059,0,0,0-6.917-7.217Zm0,12.534a5.321,5.321,0,1,1,5.1-5.317A5.205,5.205,0,0,1,644.157,554.216Z" transform="translate(-615.685 -525.473)" fill="#fd4b17"/>
    </g>
  </g>
</svg>
