<svg xmlns="http://www.w3.org/2000/svg" xmlns:xlink="http://www.w3.org/1999/xlink" width="35" height="35" viewBox="0 0 35 35">
  <defs>
    <clipPath id="clip-path">
      <rect id="矩形_27131" data-name="矩形 27131" width="35" height="35" transform="translate(-0.163 -0.463)" fill="#fff" stroke="#707070" stroke-width="1"/>
    </clipPath>
  </defs>
  <g id="蒙版组_19632" data-name="蒙版组 19632" transform="translate(0.163 0.463)" clip-path="url(#clip-path)">
    <g id="service" transform="translate(3.588 2.031)">
      <path id="路径_76628" data-name="路径 76628" d="M584.948,546.268a1.088,1.088,0,0,0-1.989-.884c-.552.994-2.762,1.547-5.855,1.547a1.1,1.1,0,0,0,0,2.209h.331C580.308,549.141,583.843,548.588,584.948,546.268Z" transform="translate(-560.534 -529.145)" fill="#fd4b17"/>
      <path id="路径_76629" data-name="路径 76629" d="M154.845,104.731l-1.436-.552a12.172,12.172,0,0,0-24.3.221l-.663.442a1.364,1.364,0,0,0-.442.884v4.64a1.1,1.1,0,0,0,2.209,0v-3.977l.663-.442a1.4,1.4,0,0,0,.442-.994,9.942,9.942,0,1,1,19.885,0,1.061,1.061,0,0,0,.773.994l1.436.552v3.756a1.1,1.1,0,1,0,2.209,0v-4.64A1.046,1.046,0,0,0,154.845,104.731Z" transform="translate(-128 -92.8)" fill="#353535"/>
      <path id="路径_76630" data-name="路径 76630" d="M174.656,235.6a6.3,6.3,0,1,1,6.3-6.3,5.378,5.378,0,0,1-.11,1.326,1.127,1.127,0,1,0,2.209.442,9.667,9.667,0,0,0,.221-1.768,8.507,8.507,0,1,0-13.146,7.07,11.13,11.13,0,0,0-7.512,8.506,1.118,1.118,0,0,0,.884,1.326h.221a1.076,1.076,0,0,0,1.1-.884c.884-4.529,4.861-7.512,9.942-7.512a1.044,1.044,0,0,0,1.1-1.1,1.2,1.2,0,0,0-1.215-1.1Zm8.4,2.1a1.1,1.1,0,0,0-1.326,1.768,10.07,10.07,0,0,1,3.977,5.965,1.076,1.076,0,0,0,1.1.884h.221a1.146,1.146,0,0,0,.884-1.326A12.082,12.082,0,0,0,183.052,237.7Z" transform="translate(-161.399 -216.381)" fill="#353535"/>
    </g>
  </g>
</svg>
