<svg xmlns="http://www.w3.org/2000/svg" xmlns:xlink="http://www.w3.org/1999/xlink" width="35" height="35" viewBox="0 0 35 35">
  <defs>
    <clipPath id="clip-path">
      <rect id="矩形_27130" data-name="矩形 27130" width="35" height="35" transform="translate(-0.742 -0.444)" fill="#fff" stroke="#707070" stroke-width="1"/>
    </clipPath>
  </defs>
  <g id="蒙版组_19631" data-name="蒙版组 19631" transform="translate(0.742 0.444)" clip-path="url(#clip-path)">
    <g id="location-dealer" transform="translate(1.258 2.164)">
      <path id="路径_76625" data-name="路径 76625" d="M191.7,77.521a1.1,1.1,0,0,0,1.082-1.172,9.3,9.3,0,0,1,.474-2.812,8.576,8.576,0,0,1,8.4-5.966,8.325,8.325,0,0,1,7.38,4.707,8.012,8.012,0,0,1,.948,4.947,9.457,9.457,0,0,1-1.167,3.244,41.158,41.158,0,0,1-7.275,9.236c-.147.148-.213.07-.316-.027-.839-.784-1.649-1.6-2.422-2.444a28.638,28.638,0,0,1-5.1-7.246,1.077,1.077,0,1,0-1.954.9,16.11,16.11,0,0,0,.918,1.8,39.762,39.762,0,0,0,7.91,9.32,1.093,1.093,0,0,0,1.694-.028,53.419,53.419,0,0,0,4.636-4.943,30.81,30.81,0,0,0,4.043-6.028,10.781,10.781,0,0,0,1.264-4.639,11.23,11.23,0,0,0-2.1-6.458,10.673,10.673,0,0,0-11-4.262,11,11,0,0,0-8.5,10.7A1.1,1.1,0,0,0,191.7,77.521Z" transform="translate(-186.323 -65.39)" fill="#353535"/>
      <path id="路径_76626" data-name="路径 76626" d="M92.982,683.158q-2.145-3.793-4.322-7.569a1.074,1.074,0,0,0-1.828-.046,1.05,1.05,0,0,0-.011,1.176q1.588,2.775,3.17,5.552a.676.676,0,0,1,.152.333h-24.3c.392-.688.757-1.331,1.123-1.973.745-1.305,1.5-2.608,2.235-3.916a1.08,1.08,0,0,0-.654-1.633,1.1,1.1,0,0,0-1.254.625c-1.386,2.425-2.742,4.868-4.169,7.268a1.155,1.155,0,0,0,1.055,1.814c4.42-.039,8.84-.017,13.26-.017q7.254,0,14.509,0A1.072,1.072,0,0,0,92.982,683.158Z" transform="translate(-62.921 -654.537)" fill="#fd4b17"/>
      <path id="路径_76627" data-name="路径 76627" d="M391.812,262.363a4.319,4.319,0,1,0-4.336,4.319A4.325,4.325,0,0,0,391.812,262.363Zm-6.478,0a2.159,2.159,0,1,1,2.2,2.164A2.165,2.165,0,0,1,385.334,262.359Z" transform="translate(-372.4 -251.563)"/>
    </g>
  </g>
</svg>
